<?xml version="1.0"?>
<svg width="128" height="128" xmlns="http://www.w3.org/2000/svg" xmlns:svg="http://www.w3.org/2000/svg" transform="rotate(0)" version="1.1">
 <g class="layer">
  <title>Layer 1</title>
  <g id="SVGRepo_bgCarrier" stroke-width="0"/>
  <g id="SVGRepo_tracerCarrier" stroke-linecap="round" stroke-linejoin="round"/>
  <g id="SVGRepo_iconCarrier">
   <g id="layer1">
    <path d="m41,0.06a3.13,3.08 0 0 0 -1.41,0.31l-37.82,18.49a3.13,3.08 0 0 0 -1.78,2.77l0,98.73a3.13,3.08 0 0 0 4.54,2.77l36.57,-17.92l42.73,17.97a3.13,3.08 0 0 0 2.66,-0.05l13.06,-6.43l-4.65,-4.54l-9.87,4.81l-32.07,-13.48c-3.13,-0.94 -6.16,-2.14 -8.93,-3.76l-1.72,-0.73a3.13,3.08 0 0 0 -2.66,0.05l-33.27,16.3l0,-91.83l34.79,-17.03l42.73,17.97a3.13,3.08 0 0 0 2.66,-0.05l33.27,-16.3l0,91.83l-7.05,3.45l4.28,4.18a9.45,9.25 0 0 1 0.37,0.42l6.95,-3.4a3.13,3.08 0 0 0 1.78,-2.77l0,-98.73a3.13,3.08 0 0 0 -4.54,-2.77l-36.57,17.92l-42.73,-17.97a3.13,3.08 0 0 0 -1.25,-0.26l-0.05,0.05zm-0.05,12.28a3.13,3.08 0 0 0 -3.08,3.13l0,24.92c1.93,-1.67 4.02,-3.19 6.32,-4.49l0,-20.42a3.13,3.08 0 0 0 -3.24,-3.13zm44.09,18.49a3.13,3.08 0 0 0 -3.08,3.13l0,1.93c2.25,1.31 4.34,2.82 6.32,4.49l0,-6.43a3.13,3.08 0 0 0 -3.24,-3.13zm-21.99,6.16c-17.39,0 -31.5,13.89 -31.5,30.87c0,17.03 14.1,30.87 31.5,30.87c7.57,0 14.36,-2.72 19.85,-7.05l25.18,24.66a3.13,3.08 0 0 0 4.39,-4.39l-25.18,-24.66c4.49,-5.33 7.26,-12.01 7.26,-19.43c0,-16.98 -14.1,-30.87 -31.5,-30.87zm0,6.16c14,0 25.18,11.02 25.18,24.66c0,13.69 -11.23,24.66 -25.18,24.66c-14,0 -25.18,-10.97 -25.18,-24.66c0,-13.63 11.23,-24.66 25.18,-24.66zm19.17,56.52c-0.05,0.05 -0.21,0.05 -0.26,0.1l0,8.2a3.13,3.08 0 1 0 6.32,0l0,-2.35l-6.06,-6.01l0,0.05z" fill="#222222" id="svg_1" stroke-width="0"/>
   </g>
  </g>
 </g>
</svg>